<?xml version="1.0" encoding="utf-8"?>
<!-- Generator: Adobe Illustrator 22.0.1, SVG Export Plug-In . SVG Version: 6.00 Build 0)  -->
<svg version="1.1" id="Layer_1" xmlns="http://www.w3.org/2000/svg" xmlns:xlink="http://www.w3.org/1999/xlink" x="0px" y="0px"
	 viewBox="0 0 600 500" style="enable-background:new 0 0 600 500;" xml:space="preserve">
<style type="text/css">
	.st0{fill:#12CDFD;}
	.st1{fill:#FF5E55;}
</style>
<g id="XMLID_11_">
	<path class="st0" d="M441.6,217.6l-60.7,94.1c0.4-0.7,0.8-1.4,1.2-2.1c7.1-13,11.1-28,11.1-43.9c0-50.8-41.2-92-92-92
		c-24.4,0-46.6,9.5-63.1,25c-0.2,0.2-0.4,0.4-0.6,0.5c-4.3,4.1-8.2,8.5-11.6,13.4c-0.8,1.1-1.5,2.1-2.2,3.2
		c-0.9,1.4-1.8,2.8-2.6,4.2l-60.7,94.2l-0.3,0.5L60.6,469.2l0,0c-4.7,9.2-14.3,15.5-25.4,15.5c-15.8,0-28.5-12.8-28.5-28.5
		c0-6.5,2.2-12.5,5.9-17.4l160.1-248.3l0,0l3.1-4.8l0,0c5.3-8.3,11.4-16.1,18.2-23.2c1.4-1.5,2.9-3,4.4-4.4
		c26.7-25.4,62.8-40.9,102.5-40.9c65.2,0,120.6,41.9,140.7,100.2C441.6,217.6,441.6,217.6,441.6,217.6z"/>
	<path class="st1" d="M542.6,60.9l-3.8,5.9c4.5-9.9,14.4-16.7,26-16.7c15.8,0,28.5,12.8,28.5,28.5c0,4.7-1.1,9.1-3.1,13l0.2,0.1
		l-161,249.7c0,0,0,0,0,0l-3.1,4.8l0,0c-5.3,8.3-11.4,16.1-18.2,23.2c-1.4,1.5-2.9,3-4.4,4.4c-0.4,0.3-0.7,0.7-1.1,1
		c-26.6,24.7-62.2,39.9-101.4,39.9c-65.2,0-120.6-41.9-140.7-100.2c0,0,0-0.1,0-0.1l60.7-94.2c-0.4,0.7-0.8,1.4-1.2,2.1
		c-7.1,13-11.1,28-11.1,43.9c0,50.8,41.2,92,92,92c24.4,0,46.6-9.5,63.1-25c0.2-0.2,0.4-0.4,0.6-0.5c4.3-4.1,8.2-8.5,11.6-13.3
		c0.8-1.1,1.5-2.1,2.2-3.2c0.9-1.4,1.8-2.8,2.6-4.2l60.7-94.1l0.3-0.5l96.9-150.3L542.6,60.9z"/>
</g>
</svg>
