<svg id="Layer_1" data-name="Layer 1" xmlns="http://www.w3.org/2000/svg" viewBox="0 0 966.97 789.75"><defs><style>.cls-1{fill:#12cdfd;}.cls-2{fill:#ff5e55;}</style></defs><title>logo3</title><path class="cls-1" d="M390.23,682.08,270,863.45,158.79,789.73,386.5,446.23l17.05-25.72q6.17-8.1,13-15.64l1.24.82A231.64,231.64,0,0,1,786,441.19L676.24,606.7a98.83,98.83,0,0,0-120-138.64c-.74.25-1.48.51-2.21.79l-.07,0a98.93,98.93,0,0,0-42,29.6,97.87,97.87,0,0,0-11.93,18L390.32,681.94q-5.42-8.82-10.06-18.15C383.31,670.05,386.65,676.15,390.23,682.08Z" transform="translate(-152.79 -95.49)"/><path class="cls-2" d="M758.46,717.44a231.65,231.65,0,0,1-368.14-35.5L500,516.46A98.84,98.84,0,0,0,622.15,654.34l2-.77a99.09,99.09,0,0,0,52-46.87L786,441.19q5.24,8.51,9.73,17.48-4.44-9-9.64-17.61L906.29,259.68,1017.5,333.4,789.79,676.9l-17,25.72q-6.18,8.1-13,15.63Z" transform="translate(-152.79 -95.49)"/><circle class="cls-2" cx="804.65" cy="208.21" r="67.01"/><circle class="cls-1" cx="219.8" cy="818.23" r="67.01" transform="translate(-666.99 299.58) rotate(-45)"/><path class="cls-2" d="M722,749.46c14.33-10.69,29.57-21.5,37.62-31.36l-2.68-2Z" transform="translate(-152.79 -95.49)"/><path class="cls-1" d="M453.88,374.05c-14.33,10.69-29.57,21.5-37.63,31.35l2.69,2Z" transform="translate(-152.79 -95.49)"/><circle class="cls-2" cx="899.96" cy="67.01" r="67.01"/></svg>