<?xml version="1.0" encoding="utf-8"?>
<!-- Generator: Adobe Illustrator 21.1.0, SVG Export Plug-In . SVG Version: 6.00 Build 0)  -->
<svg version="1.1" id="Layer_1" xmlns="http://www.w3.org/2000/svg" xmlns:xlink="http://www.w3.org/1999/xlink" x="0px" y="0px"
	 viewBox="0 0 50 50" style="enable-background:new 0 0 50 50;" xml:space="preserve">
<style type="text/css">
	.st0{fill:#FFFFFF;}
</style>
<path class="st0" d="M25.2,11.3c2.7,0,4.7,2,4.7,4.7s-2,4.7-4.7,4.7s-4.7-2-4.7-4.7S22.5,11.3,25.2,11.3 M25.2,31.3
	c6.7,0,13.5,3.3,13.5,4.7v2.4H11.6v-2.4C11.6,34.6,18.5,31.3,25.2,31.3 M25.2,7.1c-4.9,0-8.9,4-8.9,8.9s4,8.9,8.9,8.9s8.9-4,8.9-8.9
	S30,7.1,25.2,7.1z M25.2,27.1c-6,0-17.7,2.9-17.7,8.9v6.7h35.5v-6.7C42.9,29.9,31.2,27.1,25.2,27.1z"/>
</svg>
